# Blender v2.71 (sub 0) OBJ File: 'rumble_canyon2.blend'
# www.blender.org
mtllib arch.mtl
o Cube
v -97.034821 -4.894349 -45.059883
v -114.074776 -6.170065 -56.456688
v -110.128700 -9.761009 -61.136490
v -94.465950 -4.894349 -48.517925
v -96.391006 -2.894349 -45.926552
v -115.222008 -4.170065 -58.021553
v -112.375221 -5.784112 -61.221584
v -95.461586 -2.894349 -47.177673
v -97.034821 -3.894349 -45.059883
v -114.818954 -5.170065 -57.009518
v -110.956863 -7.706434 -61.576279
v -94.500610 -3.894349 -48.471272
v -95.986931 -6.308880 -44.098114
v -115.298180 -7.584597 -57.182198
v -109.079269 -12.851952 -60.540218
v -93.711533 -6.308880 -47.161091
v -112.795151 -9.285093 -60.542717
v -95.002235 -6.308880 -45.423634
v -104.473534 -2.894349 -52.722401
v -104.187782 -4.894349 -51.552464
v -103.838997 -2.894349 -53.576565
v -102.712631 -4.894349 -53.538204
v -104.559875 -3.894349 -51.828880
v -103.084724 -3.894349 -53.814621
v -104.135529 -6.308880 -51.622807
v -102.624878 -6.308880 -53.656330
v -103.314461 -6.308880 -52.728065
v -109.155464 -3.532207 -56.358601
v -100.046654 -4.894349 -49.066261
v -99.567215 -2.894349 -50.488953
v -107.087082 -6.415854 -56.787849
v -100.232704 -3.894349 -49.204472
v -107.656303 -4.533905 -57.210709
v -99.566589 -6.308880 -48.526314
v -105.480911 -8.905681 -55.777992
v -98.882500 -6.308880 -49.447182
v -100.077629 -2.894349 -49.801872
v -109.308121 -5.564805 -54.283817
v -108.564690 -3.532207 -57.153858
v -98.853996 -4.894349 -50.671738
v -109.711517 -4.564805 -54.926598
v -99.040039 -3.894349 -50.809948
v -109.476402 -6.970845 -54.780865
v -98.198418 -6.308880 -50.368046
v -107.332062 -7.648636 -55.513088
vt 0.525762 0.589312
vt 0.647205 0.619795
vt 0.628588 0.659078
vt 0.512827 0.624197
vt 0.554902 0.548432
vt 0.669641 0.598101
vt 0.360796 0.331823
vt 0.244660 0.240127
vt 0.271950 0.190870
vt 0.378829 0.282063
vt 0.377526 -0.068553
vt 0.604967 0.497196
vt 0.775336 0.419283
vt 0.337865 0.402664
vt 0.211957 0.347999
vt 0.470352 0.740890
vt 0.600377 0.847207
vt 0.516974 1.006779
vt 0.430118 0.804586
vt 0.272223 0.137204
vt 0.395900 0.205490
vt 0.658435 0.727448
vt 0.515909 0.692655
vt 0.292416 0.521519
vt 0.401263 0.540092
vt 0.388513 0.580191
vt 0.283032 0.563204
vt 0.315611 0.460730
vt 0.427991 0.505359
vt 0.616545 0.423357
vt 0.477152 0.390281
vt 0.487287 0.337217
vt 0.632918 0.328414
vt 0.459301 0.465059
vt 0.257720 0.638057
vt 0.374263 0.663909
vt 0.367189 0.679882
vt 0.254331 0.655242
vt 0.516908 0.268098
vt 0.635961 0.198230
vt 0.383327 0.643450
vt 0.261350 0.619663
vt 0.181990 0.462896
vt 0.175980 0.508404
vt 0.197473 0.420760
vt 0.805279 0.286108
vt 0.814891 0.184611
vt 0.133164 0.594689
vt 0.134546 0.630803
vt 0.830509 0.049486
vt 0.131981 0.563645
vn -0.423600 0.525400 0.737800
vn -0.335900 0.617600 0.711200
vn -0.399100 0.021900 0.916600
vn -0.459900 0.024900 0.887600
vn -0.220200 0.967500 0.124200
vn -0.188300 0.974800 0.119500
vn 0.515100 0.350200 -0.782300
vn 0.449600 0.385900 -0.805500
vn 0.679400 0.101100 -0.726700
vn 0.542000 -0.005700 -0.840400
vn -0.557600 0.228600 0.798000
vn 0.191300 -0.284000 0.939500
vn 0.741600 -0.382600 0.550900
vn 0.960200 -0.272500 0.061100
vn 0.212200 0.828400 -0.518300
vn 0.265400 0.738200 -0.620100
vn 0.252600 0.898000 -0.360100
vn 0.194600 0.934600 -0.297800
vn -0.174800 -0.814400 0.553300
vn -0.264100 -0.770900 0.579600
vn 0.404800 -0.860000 0.310600
vn 0.582100 -0.812600 -0.028600
vn 0.358800 -0.753800 -0.550500
vn -0.205100 -0.739800 0.640800
vn -0.265600 -0.639000 0.721900
vn -0.620800 0.328700 0.711800
vn -0.497700 0.411800 0.763300
vn -0.512100 0.022400 0.858600
vn -0.661900 -0.007100 0.749600
vn -0.270500 0.904900 0.328600
vn -0.270000 0.912800 0.306400
vn 0.582600 0.321400 -0.746500
vn 0.563300 0.273500 -0.779700
vn 0.591200 0.038600 -0.805600
vn 0.677900 0.089700 -0.729600
vn 0.249600 0.872400 -0.420100
vn 0.000000 -1.000000 0.000000
vn -0.016500 -0.964300 0.264100
vn 0.555500 -0.642800 -0.527500
vn -0.331300 -0.664600 0.669700
vn -0.463600 -0.756800 0.460800
vn -0.748100 0.286500 0.598600
vn -0.364500 0.877100 0.312900
vn 0.651700 0.296400 -0.698200
vn 0.742700 0.144700 -0.653800
usemtl sandstone_arch
s 1
f 41/1/1 10/2/2 2/3/3 38/4/4
f 28/5/5 6/6/6 10/2/2 41/1/1
f 42/7/7 12/8/8 4/9/9 40/10/10
f 4/11/9 1/11/11 13/11/12 18/11/13 16/11/14
f 39/12/15 7/13/16 6/6/6 28/5/5
f 30/14/17 8/15/18 12/8/8 42/7/7
f 45/16/19 17/17/20 15/18/21 35/19/22
f 40/10/10 4/9/9 16/20/14 44/21/23
f 38/4/4 2/3/3 14/22/24 43/23/25
f 43/23/25 14/22/24 17/17/20 45/16/19
f 32/24/26 23/25/27 20/26/28 29/27/29
f 37/28/30 19/29/31 23/25/27 32/24/26
f 33/30/32 24/31/33 22/32/34 31/33/35
f 30/14/17 21/34/36 19/29/31 37/28/30
f 39/12/15 21/34/36 24/31/33 33/30/32
f 36/35/37 27/36/38 26/37/39 44/38/23
f 31/33/35 22/32/34 26/39/39 35/40/22
f 29/27/29 20/26/28 25/41/40 34/42/41
f 34/42/41 25/41/40 27/36/38 36/35/37
f 23/25/27 41/1/1 38/4/4 20/26/28
f 19/29/31 28/5/5 41/1/1 23/25/27
f 24/31/33 42/7/7 40/10/10 22/32/34
f 21/34/36 39/12/15 28/5/5 19/29/31
f 21/34/36 30/14/17 42/7/7 24/31/33
f 27/36/38 45/16/19 35/19/22 26/37/39
f 22/32/34 40/10/10 44/21/23 26/39/39
f 20/26/28 38/4/4 43/23/25 25/41/40
f 25/41/40 43/23/25 45/16/19 27/36/38
f 9/43/42 32/24/26 29/27/29 1/44/11
f 5/45/43 37/28/30 32/24/26 9/43/42
f 11/46/44 33/30/32 31/33/35 3/47/45
f 8/15/18 30/14/17 37/28/30 5/45/43
f 7/13/16 39/12/15 33/30/32 11/46/44
f 18/48/13 36/35/37 44/38/23 16/49/14
f 3/47/45 31/33/35 35/40/22 15/50/21
f 1/44/11 29/27/29 34/42/41 13/51/12
f 13/51/12 34/42/41 36/35/37 18/48/13
