# Blender v2.71 (sub 0) OBJ File: 'rumble_canyon2.blend'
# www.blender.org
mtllib cave_boulder.mtl
o cave_boulder_Cube.011
v -114.966698 -36.600903 94.696236
v -121.947594 -40.279663 103.122360
v -113.696571 -41.702347 94.076584
v -112.847336 -40.665394 92.599220
v -111.043694 -42.508381 99.149963
v -118.486023 -36.215168 99.259041
v -115.337234 -38.874619 95.693329
v -117.866127 -40.601486 105.639069
v -114.955902 -40.849091 90.986061
v -122.934052 -40.710545 99.765755
v -116.793129 -37.092777 93.088013
v -120.202934 -36.954231 96.928810
v -113.414513 -42.177143 98.346458
v -116.190498 -42.149593 101.339676
v -119.987312 -41.632328 100.508957
v -118.259262 -38.804604 98.771423
v -115.249161 -37.189388 101.819908
v -113.473442 -41.316635 103.772888
v -112.244263 -39.134827 97.100342
v -123.449966 -44.284584 104.378868
v -110.344727 -44.360115 98.486206
v -120.131660 -40.315277 104.667656
v -115.009262 -44.284584 90.355484
v -122.989769 -40.432224 101.367088
v -112.288101 -44.284584 92.458206
v -114.256775 -40.659374 91.200844
v -111.814270 -40.334698 94.719597
v -120.331009 -37.261078 101.528275
v -113.439369 -37.296383 96.178757
v -116.270027 -36.661869 93.412682
v -113.656792 -37.839680 93.193985
v -118.639702 -44.324562 107.249596
v -124.145958 -44.284584 100.233276
v -116.765549 -36.423939 100.891655
v -119.826508 -36.434719 97.684090
v -116.626595 -36.281815 96.814934
v -116.840240 -38.741650 97.142899
v -113.576248 -37.831238 99.535706
v -118.590881 -36.897728 94.783897
v -115.959816 -44.313705 101.719864
v -121.645317 -37.984447 98.822754
v -114.769135 -42.124821 99.872940
v -113.080681 -44.313705 98.549034
v -116.823029 -40.231289 100.507515
v -115.388527 -38.192268 91.826836
v -119.664215 -37.751572 97.216743
v -121.895027 -41.111591 99.189377
v -114.813057 -41.206200 91.947197
v -116.495659 -37.846176 93.816719
v -117.867073 -42.051937 101.850426
v -112.824402 -42.103878 96.500809
v -114.062111 -40.283234 97.581886
v -114.154572 -39.697014 94.609093
v -113.600899 -44.299145 93.819931
v -120.338333 -44.299145 100.528481
v -119.379784 -39.591991 100.064812
v -113.112061 -44.400093 105.149780
v -116.825096 -37.886925 103.879013
v -115.522789 -40.986027 105.514755
v -111.429619 -41.183174 97.933304
v -114.098061 -38.743095 102.596191
v -111.914825 -41.766392 101.341827
v -121.400337 -44.294579 105.990417
v -124.471024 -44.284584 102.448601
v -114.117996 -44.284584 90.658913
v -110.652657 -44.303467 95.238815
v -118.655792 -37.352791 103.062279
v -121.458328 -37.506668 99.905586
v -114.829475 -37.847393 92.024765
v -112.842606 -38.386879 94.663727
v -111.214478 -44.407875 101.892487
v -114.885292 -36.686031 98.486809
v -118.096382 -36.418934 95.315491
v -114.868156 -44.288223 91.443840
v -122.694984 -44.288223 99.128159
v -118.156647 -37.683525 95.349808
v -114.455513 -44.313705 100.196320
v -112.555687 -44.310066 96.512177
v -117.838966 -44.310066 102.152855
v -115.443718 -40.184586 99.028740
v -117.982498 -40.546040 101.007881
v -113.524002 -40.620266 96.294533
v -120.937347 -38.683273 98.726822
v -115.206154 -38.825180 92.666252
v -115.699722 -44.363434 107.266136
v -115.466118 -39.039631 104.080887
v -112.614433 -39.572876 100.355934
vt 0.066732 0.421168
vt 0.126201 0.735228
vt 0.061287 0.870288
vt 0.001571 0.497967
vt 0.002517 0.001304
vt 0.054790 0.005807
vt 0.140560 0.009184
vt 0.159185 0.366196
vt 0.190342 0.598157
vt 0.280727 0.846683
vt 0.486144 0.852345
vt 0.487523 0.993473
vt 0.242324 0.993924
vt 0.306303 0.650111
vt 0.484820 0.658844
vt 0.306227 0.354876
vt 0.293325 0.010310
vt 0.482440 0.009983
vt 0.483603 0.360600
vt 0.667059 0.356756
vt 0.677262 0.009004
vt 0.840819 0.007715
vt 0.824784 0.369212
vt 0.793191 0.601923
vt 0.669764 0.653699
vt 0.924966 0.423834
vt 0.936137 0.006460
vt 0.997336 0.005220
vt 0.996377 0.499538
vt 0.931734 0.870196
vt 0.862711 0.738818
vt 0.698288 0.849022
vt 0.739720 0.993536
vt 0.472480 0.197117
vt 0.563576 0.268085
vt 0.502531 0.346870
vt 0.416103 0.276982
vt 0.340201 0.232923
vt 0.362779 0.157200
vt 0.385303 0.067085
vt 0.513725 0.110527
vt 0.623174 0.180881
vt 0.814903 0.631945
vt 0.884821 0.816700
vt 0.791357 0.843219
vt 0.728563 0.671656
vt 0.661304 0.523494
vt 0.739808 0.470061
vt 0.821952 0.411252
vt 0.895342 0.589835
vt 0.958738 0.791097
vt 0.216183 0.164514
vt 0.051140 0.195443
vt 0.043725 0.047786
vt 0.222988 0.050677
vt 0.241101 0.266152
vt 0.074405 0.345235
vt 0.218523 0.487215
vt 0.250844 0.409192
vt 0.372999 0.474312
vt 0.306996 0.563734
vt 0.220793 0.647106
vt 0.129369 0.499293
vt 0.654359 0.353920
vt 0.585112 0.422136
vt 0.728573 0.278029
vt 0.630424 0.706568
vt 0.590081 0.566176
vt 0.658798 0.871570
vt 0.506404 0.862852
vt 0.523909 0.708477
vt 0.529827 0.603603
vt 0.081628 0.461040
vt 0.111398 0.444262
vt 0.156888 0.586090
vt 0.134582 0.616047
vt 0.112276 0.646003
vt 0.051859 0.477819
vt 0.021332 0.260604
vt 0.057090 0.260604
vt 0.092847 0.260604
vt 0.773591 0.469123
vt 0.842053 0.260604
vt 0.981915 0.260604
vt 0.862381 0.489030
vt 0.727695 0.662820
vt 0.681924 0.628171
vt 0.636154 0.593523
vt 0.684802 0.449217
vt 0.702192 0.260604
vt 0.244366 0.680194
vt 0.256257 0.644262
vt 0.386595 0.653672
vt 0.388336 0.691574
vt 0.390078 0.729475
vt 0.232475 0.716126
vt 0.543848 0.688277
vt 0.562706 0.727337
vt 0.524989 0.649217
vt 0.525800 0.475002
vt 0.438591 0.408818
vt 0.470289 0.541141
vt 0.412446 0.649177
vt 0.353437 0.778162
vt 0.329464 0.343394
vn -0.913900 -0.189500 0.358800
vn -0.815900 -0.564400 0.125400
vn -0.872400 -0.488400 0.018400
vn -0.955000 -0.133600 0.264800
vn -0.957300 -0.035100 0.286800
vn -0.910800 -0.077900 0.405400
vn -0.991800 -0.123300 0.032500
vn -0.968400 -0.249400 0.000900
vn -0.854700 -0.517500 -0.041100
vn -0.513300 -0.834600 -0.199800
vn -0.364900 -0.873000 -0.323600
vn -0.469300 -0.784400 -0.405300
vn -0.582800 -0.755200 -0.300200
vn -0.673300 -0.646300 -0.359100
vn -0.535800 -0.686000 -0.492100
vn -0.828500 -0.310000 -0.466300
vn -0.866400 -0.171300 -0.469100
vn -0.723100 -0.194000 -0.662900
vn -0.691600 -0.339700 -0.637300
vn -0.487000 -0.329900 -0.808700
vn -0.496700 -0.186700 -0.847600
vn 0.139900 -0.138400 -0.980400
vn 0.110800 -0.280200 -0.953500
vn 0.047200 -0.565500 -0.823400
vn -0.369800 -0.673500 -0.640100
vn 0.491300 -0.220500 -0.842600
vn 0.529100 -0.094100 -0.843300
vn -0.091900 0.024500 -0.995500
vn 0.001400 -0.110800 -0.993800
vn -0.179000 -0.498800 -0.848000
vn 0.209400 -0.624100 -0.752700
vn -0.210700 -0.862300 -0.460500
vn -0.406000 -0.743700 -0.531100
vn 0.332800 0.927800 -0.168300
vn 0.105000 0.994100 -0.027600
vn 0.415100 0.904400 0.098300
vn 0.639500 0.768700 -0.014400
vn 0.807700 0.546300 -0.221800
vn 0.648100 0.619900 -0.442400
vn 0.309300 0.614300 -0.725900
vn -0.016700 0.898000 -0.439700
vn -0.224700 0.942100 -0.248900
vn -0.660800 0.514300 0.546600
vn -0.693500 0.434100 0.575000
vn -0.468700 0.422800 0.775600
vn -0.426000 0.507800 0.748700
vn -0.226400 0.792400 0.566500
vn -0.467000 0.797000 0.383000
vn -0.699200 0.707200 0.104600
vn -0.873000 0.455800 0.173600
vn -0.896300 0.396700 0.198100
vn 0.776500 0.247800 -0.579200
vn 0.789800 0.154800 -0.593500
vn 0.500800 0.151600 -0.852200
vn 0.476100 0.247900 -0.843700
vn 0.910000 0.326800 -0.255000
vn 0.936800 0.257500 -0.236700
vn 0.933700 0.331300 0.136100
vn 0.928100 0.367700 0.058000
vn 0.834600 0.479100 0.271900
vn 0.868700 0.357000 0.343200
vn 0.877700 0.300400 0.373400
vn 0.949700 0.305500 0.069200
vn -0.121400 0.986800 0.106900
vn 0.129700 0.960000 0.248100
vn -0.410400 0.906600 -0.097800
vn -0.095300 0.491500 0.865600
vn 0.125500 0.712600 0.690200
vn -0.162800 0.425700 0.890100
vn 0.312200 0.412600 0.855800
vn 0.380000 0.451000 0.807500
vn 0.440300 0.551700 0.708300
vn -0.619900 0.120400 -0.775400
vn -0.527000 0.151100 -0.836300
vn -0.605000 0.147000 -0.782500
vn -0.816200 0.238300 -0.526300
vn -0.853000 0.254700 -0.455500
vn -0.819400 0.258600 -0.511500
vn -0.633200 0.182800 -0.752000
vn -0.729200 0.143200 -0.669100
vn -0.787300 0.221500 -0.575300
vn 0.455700 0.802100 0.385800
vn 0.703800 0.680300 0.204700
vn 0.676100 0.553900 0.485800
vn 0.727900 0.387100 0.566000
vn 0.710700 0.343000 0.614200
vn 0.867300 0.494800 0.053600
g cave_boulder_Cube.011_cave_boulder
usemtl cave_boulder
s 1
f 3/1/1 53/2/2 84/3/3 48/4/4
f 3/1/1 48/4/4 74/5/5 54/6/6
f 3/1/1 54/6/6 78/7/7 51/8/8
f 3/1/1 51/8/8 82/9/9 53/2/2
f 7/10/10 37/11/11 76/12/12 49/13/13
f 7/10/10 49/13/13 84/3/3 53/2/2
f 7/10/10 53/2/2 82/9/9 52/14/14
f 7/10/10 52/14/14 80/15/15 37/11/11
f 13/16/16 43/17/17 77/18/18 42/19/19
f 13/16/16 42/19/19 80/15/15 52/14/14
f 13/16/16 52/14/14 82/9/9 51/8/8
f 13/16/16 51/8/8 78/7/7 43/17/17
f 14/20/20 40/21/21 79/22/22 50/23/23
f 14/20/20 50/23/23 81/24/24 44/25/25
f 14/20/20 44/25/25 80/15/15 42/19/19
f 14/20/20 42/19/19 77/18/18 40/21/21
f 15/26/26 55/27/27 75/28/28 47/29/29
f 15/26/26 47/29/29 83/30/30 56/31/31
f 15/26/26 56/31/31 81/24/24 50/23/23
f 15/26/26 50/23/23 79/22/22 55/27/27
f 16/32/32 56/31/31 83/30/30 46/33/33
f 16/32/32 46/33/33 76/12/12 37/11/11
f 16/32/32 37/11/11 80/15/15 44/25/25
f 16/32/32 44/25/25 81/24/24 56/31/31
g cave_boulder_Cube.011_cave_boulder_top
usemtl cave_boulder_top
f 1/34/34 36/35/35 72/36/36 29/37/37
f 1/34/34 29/37/37 70/38/38 31/39/39
f 1/34/34 31/39/39 69/40/40 30/41/41
f 1/34/34 30/41/41 73/42/42 36/35/35
f 2/43/43 20/44/44 63/45/45 22/46/46
f 2/43/43 22/46/46 67/47/47 28/48/48
f 2/43/43 28/48/48 68/49/49 24/50/50
f 2/43/43 24/50/50 64/51/51 20/44/44
f 4/52/52 25/53/53 65/54/54 26/55/55
f 4/52/52 26/55/55 69/40/40 31/39/39
f 4/52/52 31/39/39 70/38/38 27/56/56
f 4/52/52 27/56/56 66/57/57 25/53/53
f 5/58/58 60/59/59 87/60/60 62/61/61
f 5/58/58 62/61/61 71/62/62 21/63/63
f 5/58/58 21/63/63 66/57/57 60/59/59
f 6/64/64 28/48/48 67/47/47 34/65/65
f 6/64/64 34/65/65 72/36/36 36/35/35
f 6/64/64 36/35/35 73/42/42 35/66/66
f 6/64/64 35/66/66 68/49/49 28/48/48
f 8/67/67 58/68/68 67/47/47 22/46/46
f 8/67/67 22/46/46 63/45/45 32/69/69
f 8/67/67 32/69/69 85/70/70 59/71/71
f 8/67/67 59/71/71 86/72/72 58/68/68
f 9/73/73 48/74/4 84/75/3 45/76/74
f 9/73/73 45/76/74 69/77/40 26/78/55
f 9/73/73 26/78/55 65/79/54 23/80/75
f 9/73/73 23/80/75 74/81/5 48/74/4
f 10/82/76 33/83/77 64/84/51 24/85/50
f 10/82/76 24/85/50 68/86/49 41/87/78
f 10/82/76 41/87/78 83/88/30 47/89/29
f 10/82/76 47/89/29 75/90/28 33/83/77
f 11/91/79 49/92/13 76/93/12 39/94/80
f 11/91/79 39/94/80 73/95/42 30/96/41
f 11/91/79 30/96/41 69/77/40 45/76/74
f 11/91/79 45/76/74 84/75/3 49/92/13
f 12/97/81 41/87/78 68/86/49 35/98/66
f 12/97/81 35/98/66 73/95/42 39/94/80
f 12/97/81 39/94/80 76/93/12 46/99/33
f 12/97/81 46/99/33 83/88/30 41/87/78
f 17/100/82 38/101/83 72/36/36 34/65/65
f 17/100/82 34/65/65 67/47/47 58/68/68
f 17/100/82 58/68/68 86/72/72 61/102/84
f 17/100/82 61/102/84 87/60/60 38/101/83
f 18/103/85 62/61/61 87/60/60 61/102/84
f 18/103/85 61/102/84 86/72/72 59/71/71
f 18/103/85 59/71/71 85/70/70 57/104/86
f 18/103/85 57/104/86 71/62/62 62/61/61
f 19/105/87 29/37/37 72/36/36 38/101/83
f 19/105/87 38/101/83 87/60/60 60/59/59
f 19/105/87 60/59/59 66/57/57 27/56/56
f 19/105/87 27/56/56 70/38/38 29/37/37
